<svg xmlns="http://www.w3.org/2000/svg" width="1210" height="600" viewBox="0 0 1210 600" font-family="DejaVu Sans, Arial, sans-serif">
<rect width="1210" height="600" fill="#fbfcfe"/>
<text x="605.0" y="24" text-anchor="middle" fill="#2c5f8a" font-size="16" font-weight="bold">Clínica Médica DELT — Diagrama Entidade-Relacionamento (Crow's Foot)</text>
<polyline points="165,106 165,210" fill="none" stroke="#5b6b7b" stroke-width="1.6"/>
<line x1="157.0" y1="118.0" x2="173.0" y2="118.0" stroke="#5b6b7b" stroke-width="1.6"/>
<line x1="165.0" y1="192.0" x2="165.0" y2="210.0" stroke="#5b6b7b" stroke-width="1.6"/>
<line x1="165.0" y1="192.0" x2="156.0" y2="210.0" stroke="#5b6b7b" stroke-width="1.6"/>
<line x1="165.0" y1="192.0" x2="174.0" y2="210.0" stroke="#5b6b7b" stroke-width="1.6"/>
<circle cx="165.0" cy="186.0" r="5" fill="white" stroke="#5b6b7b" stroke-width="1.6"/>
<rect x="172" y="150" width="47.599999999999994" height="16" fill="#fbfcfe" opacity="0.9"/>
<text x="177" y="162" fill="#5b6b7b" font-size="12" font-style="italic" font-family="DejaVu Sans, Arial, sans-serif">possui</text>
<polyline points="165,358 165,410 475,410 475,450" fill="none" stroke="#5b6b7b" stroke-width="1.6"/>
<line x1="157.0" y1="370.0" x2="173.0" y2="370.0" stroke="#5b6b7b" stroke-width="1.6"/>
<line x1="475.0" y1="432.0" x2="475.0" y2="450.0" stroke="#5b6b7b" stroke-width="1.6"/>
<line x1="475.0" y1="432.0" x2="466.0" y2="450.0" stroke="#5b6b7b" stroke-width="1.6"/>
<line x1="475.0" y1="432.0" x2="484.0" y2="450.0" stroke="#5b6b7b" stroke-width="1.6"/>
<circle cx="475.0" cy="426.0" r="5" fill="white" stroke="#5b6b7b" stroke-width="1.6"/>
<rect x="297" y="390" width="60.8" height="16" fill="#fbfcfe" opacity="0.9"/>
<text x="302" y="402" fill="#5b6b7b" font-size="12" font-style="italic" font-family="DejaVu Sans, Arial, sans-serif">pertence</text>
<polyline points="270,516 320,516 320,512 370,512" fill="none" stroke="#5b6b7b" stroke-width="1.6"/>
<line x1="282.0" y1="524.0" x2="282.0" y2="508.0" stroke="#5b6b7b" stroke-width="1.6"/>
<line x1="352.0" y1="512.0" x2="370.0" y2="512.0" stroke="#5b6b7b" stroke-width="1.6"/>
<line x1="352.0" y1="512.0" x2="370.0" y2="521.0" stroke="#5b6b7b" stroke-width="1.6"/>
<line x1="352.0" y1="512.0" x2="370.0" y2="503.0" stroke="#5b6b7b" stroke-width="1.6"/>
<circle cx="346.0" cy="512.0" r="5" fill="white" stroke="#5b6b7b" stroke-width="1.6"/>
<rect x="297" y="494" width="47.599999999999994" height="16" fill="#fbfcfe" opacity="0.9"/>
<text x="302" y="506" fill="#5b6b7b" font-size="12" font-style="italic" font-family="DejaVu Sans, Arial, sans-serif">possui</text>
<polyline points="270,270 560,270 560,300 640,300" fill="none" stroke="#5b6b7b" stroke-width="1.6"/>
<line x1="282.0" y1="278.0" x2="282.0" y2="262.0" stroke="#5b6b7b" stroke-width="1.6"/>
<line x1="622.0" y1="300.0" x2="640.0" y2="300.0" stroke="#5b6b7b" stroke-width="1.6"/>
<line x1="622.0" y1="300.0" x2="640.0" y2="309.0" stroke="#5b6b7b" stroke-width="1.6"/>
<line x1="622.0" y1="300.0" x2="640.0" y2="291.0" stroke="#5b6b7b" stroke-width="1.6"/>
<circle cx="616.0" cy="300.0" r="5" fill="white" stroke="#5b6b7b" stroke-width="1.6"/>
<rect x="467" y="251" width="60.8" height="16" fill="#fbfcfe" opacity="0.9"/>
<text x="472" y="263" fill="#5b6b7b" font-size="12" font-style="italic" font-family="DejaVu Sans, Arial, sans-serif">pertence</text>
<polyline points="950,134 915,134 915,300 850,300" fill="none" stroke="#5b6b7b" stroke-width="1.6"/>
<line x1="938.0" y1="126.0" x2="938.0" y2="142.0" stroke="#5b6b7b" stroke-width="1.6"/>
<line x1="868.0" y1="300.0" x2="850.0" y2="300.0" stroke="#5b6b7b" stroke-width="1.6"/>
<line x1="868.0" y1="300.0" x2="850.0" y2="291.0" stroke="#5b6b7b" stroke-width="1.6"/>
<line x1="868.0" y1="300.0" x2="850.0" y2="309.0" stroke="#5b6b7b" stroke-width="1.6"/>
<circle cx="874.0" cy="300.0" r="5" fill="white" stroke="#5b6b7b" stroke-width="1.6"/>
<rect x="861" y="238" width="47.599999999999994" height="16" fill="#fbfcfe" opacity="0.9"/>
<text x="866" y="250" fill="#5b6b7b" font-size="12" font-style="italic" font-family="DejaVu Sans, Arial, sans-serif">possui</text>
<polyline points="950,438 915,438 915,400 850,400" fill="none" stroke="#5b6b7b" stroke-width="1.6"/>
<line x1="938.0" y1="430.0" x2="938.0" y2="446.0" stroke="#5b6b7b" stroke-width="1.6"/>
<line x1="868.0" y1="400.0" x2="850.0" y2="400.0" stroke="#5b6b7b" stroke-width="1.6"/>
<line x1="868.0" y1="400.0" x2="850.0" y2="391.0" stroke="#5b6b7b" stroke-width="1.6"/>
<line x1="868.0" y1="400.0" x2="850.0" y2="409.0" stroke="#5b6b7b" stroke-width="1.6"/>
<circle cx="874.0" cy="400.0" r="5" fill="white" stroke="#5b6b7b" stroke-width="1.6"/>
<rect x="863" y="348" width="80.6" height="16" fill="#fbfcfe" opacity="0.9"/>
<text x="868" y="360" fill="#5b6b7b" font-size="12" font-style="italic" font-family="DejaVu Sans, Arial, sans-serif">acontece em</text>
<g>
<rect x="60" y="30" width="210" height="76" rx="6" fill="white" stroke="#2c5f8a" stroke-width="1.5"/>
<rect x="60" y="30" width="210" height="28" rx="6" fill="#2c5f8a"/>
<rect x="60" y="52" width="210" height="6" fill="#2c5f8a"/>
<text x="165.0" y="49" text-anchor="middle" fill="white" font-size="14" font-weight="bold" font-family="DejaVu Sans, Arial, sans-serif">ESPECIALIDADE</text>
<text x="72" y="74" fill="#1b2b3a" font-size="12.5" font-weight="bold" text-decoration="underline" font-family="DejaVu Sans, Arial, sans-serif">especialidadeID</text>
<text x="258" y="74" text-anchor="end" fill="#9a3b2e" font-size="10.5" font-weight="bold" font-family="DejaVu Sans, Arial, sans-serif">PK</text>
<line x1="60" y1="82" x2="270" y2="82" stroke="#dfe6ec" stroke-width="1"/>
<text x="72" y="98" fill="#1b2b3a" font-size="12.5" font-weight="normal" font-family="DejaVu Sans, Arial, sans-serif">nome</text>
</g>
<g>
<rect x="60" y="210" width="210" height="148" rx="6" fill="white" stroke="#2c5f8a" stroke-width="1.5"/>
<rect x="60" y="210" width="210" height="28" rx="6" fill="#2c5f8a"/>
<rect x="60" y="232" width="210" height="6" fill="#2c5f8a"/>
<text x="165.0" y="229" text-anchor="middle" fill="white" font-size="14" font-weight="bold" font-family="DejaVu Sans, Arial, sans-serif">PROFISSIONAL</text>
<text x="72" y="254" fill="#1b2b3a" font-size="12.5" font-weight="bold" text-decoration="underline" font-family="DejaVu Sans, Arial, sans-serif">profissionalID</text>
<text x="258" y="254" text-anchor="end" fill="#9a3b2e" font-size="10.5" font-weight="bold" font-family="DejaVu Sans, Arial, sans-serif">PK</text>
<line x1="60" y1="262" x2="270" y2="262" stroke="#dfe6ec" stroke-width="1"/>
<text x="72" y="278" fill="#1b2b3a" font-size="12.5" font-weight="normal" font-family="DejaVu Sans, Arial, sans-serif">nome</text>
<line x1="60" y1="286" x2="270" y2="286" stroke="#dfe6ec" stroke-width="1"/>
<text x="72" y="302" fill="#1b2b3a" font-size="12.5" font-weight="normal" font-family="DejaVu Sans, Arial, sans-serif">crm</text>
<line x1="60" y1="310" x2="270" y2="310" stroke="#dfe6ec" stroke-width="1"/>
<text x="72" y="326" fill="#1b2b3a" font-size="12.5" font-weight="normal" font-family="DejaVu Sans, Arial, sans-serif">celular</text>
<line x1="60" y1="334" x2="270" y2="334" stroke="#dfe6ec" stroke-width="1"/>
<text x="72" y="350" fill="#1b2b3a" font-size="12.5" font-weight="normal" font-family="DejaVu Sans, Arial, sans-serif">especialidadeID</text>
<text x="258" y="350" text-anchor="end" fill="#9a3b2e" font-size="10.5" font-weight="bold" font-family="DejaVu Sans, Arial, sans-serif">FK</text>
</g>
<g>
<rect x="60" y="470" width="210" height="100" rx="6" fill="white" stroke="#2c5f8a" stroke-width="1.5"/>
<rect x="60" y="470" width="210" height="28" rx="6" fill="#2c5f8a"/>
<rect x="60" y="492" width="210" height="6" fill="#2c5f8a"/>
<text x="165.0" y="489" text-anchor="middle" fill="white" font-size="14" font-weight="bold" font-family="DejaVu Sans, Arial, sans-serif">TURNO</text>
<text x="72" y="514" fill="#1b2b3a" font-size="12.5" font-weight="bold" text-decoration="underline" font-family="DejaVu Sans, Arial, sans-serif">turnoNome</text>
<text x="258" y="514" text-anchor="end" fill="#9a3b2e" font-size="10.5" font-weight="bold" font-family="DejaVu Sans, Arial, sans-serif">PK</text>
<line x1="60" y1="522" x2="270" y2="522" stroke="#dfe6ec" stroke-width="1"/>
<text x="72" y="538" fill="#1b2b3a" font-size="12.5" font-weight="normal" font-family="DejaVu Sans, Arial, sans-serif">horarioInicio</text>
<line x1="60" y1="546" x2="270" y2="546" stroke="#dfe6ec" stroke-width="1"/>
<text x="72" y="562" fill="#1b2b3a" font-size="12.5" font-weight="normal" font-family="DejaVu Sans, Arial, sans-serif">horarioFim</text>
</g>
<g>
<rect x="370" y="450" width="210" height="124" rx="6" fill="white" stroke="#2c5f8a" stroke-width="1.5"/>
<rect x="370" y="450" width="210" height="28" rx="6" fill="#2c5f8a"/>
<rect x="370" y="472" width="210" height="6" fill="#2c5f8a"/>
<text x="475.0" y="469" text-anchor="middle" fill="white" font-size="14" font-weight="bold" font-family="DejaVu Sans, Arial, sans-serif">DISPONIBILIDADE</text>
<text x="382" y="494" fill="#1b2b3a" font-size="12.5" font-weight="bold" text-decoration="underline" font-family="DejaVu Sans, Arial, sans-serif">disponibilidadeID</text>
<text x="568" y="494" text-anchor="end" fill="#9a3b2e" font-size="10.5" font-weight="bold" font-family="DejaVu Sans, Arial, sans-serif">PK</text>
<line x1="370" y1="502" x2="580" y2="502" stroke="#dfe6ec" stroke-width="1"/>
<text x="382" y="518" fill="#1b2b3a" font-size="12.5" font-weight="normal" font-family="DejaVu Sans, Arial, sans-serif">dia</text>
<line x1="370" y1="526" x2="580" y2="526" stroke="#dfe6ec" stroke-width="1"/>
<text x="382" y="542" fill="#1b2b3a" font-size="12.5" font-weight="normal" font-family="DejaVu Sans, Arial, sans-serif">turnoNome</text>
<text x="568" y="542" text-anchor="end" fill="#9a3b2e" font-size="10.5" font-weight="bold" font-family="DejaVu Sans, Arial, sans-serif">FK</text>
<line x1="370" y1="550" x2="580" y2="550" stroke="#dfe6ec" stroke-width="1"/>
<text x="382" y="566" fill="#1b2b3a" font-size="12.5" font-weight="normal" font-family="DejaVu Sans, Arial, sans-serif">profissionalID</text>
<text x="568" y="566" text-anchor="end" fill="#9a3b2e" font-size="10.5" font-weight="bold" font-family="DejaVu Sans, Arial, sans-serif">FK</text>
</g>
<g>
<rect x="640" y="250" width="210" height="220" rx="6" fill="white" stroke="#2c5f8a" stroke-width="1.5"/>
<rect x="640" y="250" width="210" height="28" rx="6" fill="#2c5f8a"/>
<rect x="640" y="272" width="210" height="6" fill="#2c5f8a"/>
<text x="745.0" y="269" text-anchor="middle" fill="white" font-size="14" font-weight="bold" font-family="DejaVu Sans, Arial, sans-serif">CONSULTA</text>
<text x="652" y="294" fill="#1b2b3a" font-size="12.5" font-weight="bold" text-decoration="underline" font-family="DejaVu Sans, Arial, sans-serif">consultaID</text>
<text x="838" y="294" text-anchor="end" fill="#9a3b2e" font-size="10.5" font-weight="bold" font-family="DejaVu Sans, Arial, sans-serif">PK</text>
<line x1="640" y1="302" x2="850" y2="302" stroke="#dfe6ec" stroke-width="1"/>
<text x="652" y="318" fill="#1b2b3a" font-size="12.5" font-weight="normal" font-family="DejaVu Sans, Arial, sans-serif">data</text>
<line x1="640" y1="326" x2="850" y2="326" stroke="#dfe6ec" stroke-width="1"/>
<text x="652" y="342" fill="#1b2b3a" font-size="12.5" font-weight="normal" font-family="DejaVu Sans, Arial, sans-serif">horario</text>
<line x1="640" y1="350" x2="850" y2="350" stroke="#dfe6ec" stroke-width="1"/>
<text x="652" y="366" fill="#1b2b3a" font-size="12.5" font-weight="normal" font-family="DejaVu Sans, Arial, sans-serif">estado</text>
<line x1="640" y1="374" x2="850" y2="374" stroke="#dfe6ec" stroke-width="1"/>
<text x="652" y="390" fill="#1b2b3a" font-size="12.5" font-weight="normal" font-family="DejaVu Sans, Arial, sans-serif">descricao</text>
<line x1="640" y1="398" x2="850" y2="398" stroke="#dfe6ec" stroke-width="1"/>
<text x="652" y="414" fill="#1b2b3a" font-size="12.5" font-weight="normal" font-family="DejaVu Sans, Arial, sans-serif">profissionalID</text>
<text x="838" y="414" text-anchor="end" fill="#9a3b2e" font-size="10.5" font-weight="bold" font-family="DejaVu Sans, Arial, sans-serif">FK</text>
<line x1="640" y1="422" x2="850" y2="422" stroke="#dfe6ec" stroke-width="1"/>
<text x="652" y="438" fill="#1b2b3a" font-size="12.5" font-weight="normal" font-family="DejaVu Sans, Arial, sans-serif">pacienteID</text>
<text x="838" y="438" text-anchor="end" fill="#9a3b2e" font-size="10.5" font-weight="bold" font-family="DejaVu Sans, Arial, sans-serif">FK</text>
<line x1="640" y1="446" x2="850" y2="446" stroke="#dfe6ec" stroke-width="1"/>
<text x="652" y="462" fill="#1b2b3a" font-size="12.5" font-weight="normal" font-family="DejaVu Sans, Arial, sans-serif">salaID</text>
<text x="838" y="462" text-anchor="end" fill="#9a3b2e" font-size="10.5" font-weight="bold" font-family="DejaVu Sans, Arial, sans-serif">FK</text>
</g>
<g>
<rect x="950" y="60" width="210" height="148" rx="6" fill="white" stroke="#2c5f8a" stroke-width="1.5"/>
<rect x="950" y="60" width="210" height="28" rx="6" fill="#2c5f8a"/>
<rect x="950" y="82" width="210" height="6" fill="#2c5f8a"/>
<text x="1055.0" y="79" text-anchor="middle" fill="white" font-size="14" font-weight="bold" font-family="DejaVu Sans, Arial, sans-serif">PACIENTE</text>
<text x="962" y="104" fill="#1b2b3a" font-size="12.5" font-weight="bold" text-decoration="underline" font-family="DejaVu Sans, Arial, sans-serif">pacienteID</text>
<text x="1148" y="104" text-anchor="end" fill="#9a3b2e" font-size="10.5" font-weight="bold" font-family="DejaVu Sans, Arial, sans-serif">PK</text>
<line x1="950" y1="112" x2="1160" y2="112" stroke="#dfe6ec" stroke-width="1"/>
<text x="962" y="128" fill="#1b2b3a" font-size="12.5" font-weight="normal" font-family="DejaVu Sans, Arial, sans-serif">nome</text>
<line x1="950" y1="136" x2="1160" y2="136" stroke="#dfe6ec" stroke-width="1"/>
<text x="962" y="152" fill="#1b2b3a" font-size="12.5" font-weight="normal" font-family="DejaVu Sans, Arial, sans-serif">cpf</text>
<line x1="950" y1="160" x2="1160" y2="160" stroke="#dfe6ec" stroke-width="1"/>
<text x="962" y="176" fill="#1b2b3a" font-size="12.5" font-weight="normal" font-family="DejaVu Sans, Arial, sans-serif">email</text>
<line x1="950" y1="184" x2="1160" y2="184" stroke="#dfe6ec" stroke-width="1"/>
<text x="962" y="200" fill="#1b2b3a" font-size="12.5" font-weight="normal" font-family="DejaVu Sans, Arial, sans-serif">celular</text>
</g>
<g>
<rect x="950" y="400" width="210" height="76" rx="6" fill="white" stroke="#2c5f8a" stroke-width="1.5"/>
<rect x="950" y="400" width="210" height="28" rx="6" fill="#2c5f8a"/>
<rect x="950" y="422" width="210" height="6" fill="#2c5f8a"/>
<text x="1055.0" y="419" text-anchor="middle" fill="white" font-size="14" font-weight="bold" font-family="DejaVu Sans, Arial, sans-serif">SALA</text>
<text x="962" y="444" fill="#1b2b3a" font-size="12.5" font-weight="bold" text-decoration="underline" font-family="DejaVu Sans, Arial, sans-serif">salaID</text>
<text x="1148" y="444" text-anchor="end" fill="#9a3b2e" font-size="10.5" font-weight="bold" font-family="DejaVu Sans, Arial, sans-serif">PK</text>
<line x1="950" y1="452" x2="1160" y2="452" stroke="#dfe6ec" stroke-width="1"/>
<text x="962" y="468" fill="#1b2b3a" font-size="12.5" font-weight="normal" font-family="DejaVu Sans, Arial, sans-serif">nome</text>
</g>
</svg>